# xmcd
#
# Track frame offsets: 
#        150
#        21380
#        42822
#        66564
#        85364
#        105712
#        133583
#        149778
#        168849
#        194707
#
# Disc length: 2909 seconds
#
# Revision: 3
# Processed by: cddbd v1.5.2PL0 Copyright (c) Steve Scherf et al.
# Submitted via: ExactAudioCopy v0.99pb5
#
DISCID=9a0b5b0a
DTITLE=Palmetto Bug Stompers - Ol' New Orleans Home
DYEAR=2006
DGENRE=Jazz
TTITLE0=Call The Police
TTITLE1=Ol' New Orleans Home
TTITLE2=Avalon
TTITLE3=Last Night On The Backporch
TTITLE4=Struttin' With Some Barbecue
TTITLE5=Chinatown My Chinatown
TTITLE6=Rosetta
TTITLE7=New Orleans
TTITLE8=We'll Meet Again
TTITLE9=Oh! Lady Be Good
EXTD=YEAR: 2006
EXTT0=
EXTT1=
EXTT2=
EXTT3=
EXTT4=
EXTT5=
EXTT6=
EXTT7=
EXTT8=
EXTT9=
PLAYORDER=
